<mxfile host="app.diagrams.net" modified="2023-07-03T09:42:25.546Z" agent="Mozilla/5.0 (Windows NT 10.0; Win64; x64) AppleWebKit/537.36 (KHTML, like Gecko) Chrome/114.0.0.0 Safari/537.36 Edg/114.0.1823.67" etag="465OMrJ0WdkqcvB0DLki" version="21.5.2" type="github">
  <diagram name="第 1 页" id="e67aBaspMvJPenoC3SRr">
    <mxGraphModel dx="1626" dy="788" grid="1" gridSize="10" guides="1" tooltips="1" connect="1" arrows="1" fold="1" page="1" pageScale="1" pageWidth="827" pageHeight="1169" math="0" shadow="0">
      <root>
        <mxCell id="0" />
        <mxCell id="1" parent="0" />
        <mxCell id="l0dgICCSZxElvyNoV-md-4" value="Pool" style="swimlane;childLayout=stackLayout;resizeParent=1;resizeParentMax=0;startSize=20;html=1;" parent="1" vertex="1">
          <mxGeometry x="170" y="105" width="500" height="610" as="geometry" />
        </mxCell>
        <mxCell id="l0dgICCSZxElvyNoV-md-5" value="消费者" style="swimlane;startSize=20;html=1;" parent="l0dgICCSZxElvyNoV-md-4" vertex="1">
          <mxGeometry y="20" width="250" height="590" as="geometry" />
        </mxCell>
        <mxCell id="l0dgICCSZxElvyNoV-md-11" value="" style="edgeStyle=orthogonalEdgeStyle;rounded=0;orthogonalLoop=1;jettySize=auto;html=1;" parent="l0dgICCSZxElvyNoV-md-5" source="l0dgICCSZxElvyNoV-md-9" target="l0dgICCSZxElvyNoV-md-10" edge="1">
          <mxGeometry relative="1" as="geometry" />
        </mxCell>
        <mxCell id="l0dgICCSZxElvyNoV-md-9" value="扫包装码" style="ellipse;whiteSpace=wrap;html=1;aspect=fixed;" parent="l0dgICCSZxElvyNoV-md-5" vertex="1">
          <mxGeometry x="97.5" y="35" width="55" height="55" as="geometry" />
        </mxCell>
        <mxCell id="l0dgICCSZxElvyNoV-md-10" value="进入抽奖页面" style="rounded=1;whiteSpace=wrap;html=1;" parent="l0dgICCSZxElvyNoV-md-5" vertex="1">
          <mxGeometry x="77.5" y="115" width="95" height="32.5" as="geometry" />
        </mxCell>
        <mxCell id="l0dgICCSZxElvyNoV-md-6" value="总部" style="swimlane;startSize=20;html=1;" parent="l0dgICCSZxElvyNoV-md-4" vertex="1">
          <mxGeometry x="250" y="20" width="250" height="590" as="geometry" />
        </mxCell>
      </root>
    </mxGraphModel>
  </diagram>
</mxfile>
